<svg width="26" height="28" viewBox="0 0 26 28" fill="none" xmlns="http://www.w3.org/2000/svg">
<path d="M1.4 28C1.00333 28 0.670833 27.8658 0.4025 27.5975C0.134167 27.3292 0 26.9967 0 26.6V19.6C0 18.83 0.274167 18.1708 0.8225 17.6225C1.37083 17.0742 2.03 16.8 2.8 16.8V11.2C2.8 10.43 3.07417 9.77083 3.6225 9.2225C4.17083 8.67417 4.83 8.4 5.6 8.4H11.2V6.37C10.78 6.09 10.4417 5.75167 10.185 5.355C9.92833 4.95833 9.8 4.48 9.8 3.92C9.8 3.57 9.87 3.22583 10.01 2.8875C10.15 2.54917 10.36 2.24 10.64 1.96L12.6 0L14.56 1.96C14.84 2.24 15.05 2.54917 15.19 2.8875C15.33 3.22583 15.4 3.57 15.4 3.92C15.4 4.48 15.2717 4.95833 15.015 5.355C14.7583 5.75167 14.42 6.09 14 6.37V8.4H19.6C20.37 8.4 21.0292 8.67417 21.5775 9.2225C22.1258 9.77083 22.4 10.43 22.4 11.2V16.8C23.17 16.8 23.8292 17.0742 24.3775 17.6225C24.9258 18.1708 25.2 18.83 25.2 19.6V26.6C25.2 26.9967 25.0658 27.3292 24.7975 27.5975C24.5292 27.8658 24.1967 28 23.8 28H1.4ZM5.6 16.8H19.6V11.2H5.6V16.8ZM2.8 25.2H22.4V19.6H2.8V25.2Z" fill="#99A2B9"/>
</svg>
