<svg width="32" height="32" viewBox="0 0 32 32" fill="none" xmlns="http://www.w3.org/2000/svg">
<path d="M4.57143 0C2.05 0 0 2.05 0 4.57143V27.4286C0 29.95 2.05 32 4.57143 32H27.4286C29.95 32 32 29.95 32 27.4286V4.57143C32 2.05 29.95 0 27.4286 0H4.57143ZM24.0714 12.6429L14.9286 21.7857C14.2571 22.4571 13.1714 22.4571 12.5071 21.7857L7.93571 17.2143C7.26429 16.5429 7.26429 15.4571 7.93571 14.7929C8.60714 14.1286 9.69286 14.1214 10.3571 14.7929L13.7143 18.15L21.6429 10.2143C22.3143 9.54286 23.4 9.54286 24.0643 10.2143C24.7286 10.8857 24.7357 11.9714 24.0643 12.6357L24.0714 12.6429Z" fill="#99A2B9"/>
</svg>
