<svg width="28" height="28" viewBox="0 0 28 28" fill="none" xmlns="http://www.w3.org/2000/svg">
<g clip-path="url(#clip0_441_189)">
<path d="M10.418 3.7625L12.3211 7H12.25H8.3125C7.10391 7 6.125 6.02109 6.125 4.8125C6.125 3.60391 7.10391 2.625 8.3125 2.625H8.43281C9.24766 2.625 10.0078 3.05703 10.418 3.7625ZM3.5 4.8125C3.5 5.6 3.69141 6.34375 4.025 7H1.75C0.782031 7 0 7.78203 0 8.75V12.25C0 13.218 0.782031 14 1.75 14H26.25C27.218 14 28 13.218 28 12.25V8.75C28 7.78203 27.218 7 26.25 7H23.975C24.3086 6.34375 24.5 5.6 24.5 4.8125C24.5 2.15469 22.3453 0 19.6875 0H19.5672C17.8227 0 16.2039 0.924219 15.318 2.42813L14 4.67578L12.682 2.43359C11.7961 0.924219 10.1773 0 8.43281 0H8.3125C5.65469 0 3.5 2.15469 3.5 4.8125ZM21.875 4.8125C21.875 6.02109 20.8961 7 19.6875 7H15.75H15.6789L17.582 3.7625C17.9977 3.05703 18.7523 2.625 19.5672 2.625H19.6875C20.8961 2.625 21.875 3.60391 21.875 4.8125ZM1.75 15.75V25.375C1.75 26.8242 2.92578 28 4.375 28H12.25V15.75H1.75ZM15.75 28H23.625C25.0742 28 26.25 26.8242 26.25 25.375V15.75H15.75V28Z" fill="#99A2B9"/>
</g>
<defs>
<clipPath id="clip0_441_189">
<rect width="28" height="28" fill="white"/>
</clipPath>
</defs>
</svg>
