<?xml version="1.0" encoding="utf-8"?>
<!-- Generator: Adobe Illustrator 24.1.2, SVG Export Plug-In . SVG Version: 6.00 Build 0)  -->
<svg version="1.1" id="Layer_1" xmlns="http://www.w3.org/2000/svg" xmlns:xlink="http://www.w3.org/1999/xlink" x="0px" y="0px"
	 viewBox="0 0 101.6 110.6" style="enable-background:new 0 0 101.6 110.6;" xml:space="preserve">
<style type="text/css">
	.st0{fill:#2400A2;}
	.st1{fill:#67432C;}
</style>
<rect x="131" y="0" class="st0" width="101.6" height="110.6"/>
<g>
	<path class="st1" d="M50.3,95.5c-8.7,0-17.3,0-25.9,0c-4.2,0-4.8-0.7-4.8-5.5c0-4.9,0.8-6,4.9-6c17.3,0,34.6,0,51.9,0
		c4.1,0,4.7,0.8,4.7,6.1c0,4.9-0.5,5.5-4.8,5.5C67.5,95.6,58.9,95.5,50.3,95.5z"/>
	<path class="st1" d="M94.7,33.5c-1.1,0-2.1,0.4-2.9,0.9c-0.2,0.1-0.4,0.2-0.6,0.4c-1.4,1.1-2.3,2.6-2.3,4.5c0,0.3,0.1,0.5,0.1,0.7
		c-0.2,1.1-1.2,2.4-2.1,2.8c-6.5,2.8-13.2,5.3-19.7,8.1c-2.2,0.9-3.3,0.5-4.3-1.6c-2.3-4.8-4.6-9.5-7.1-14.2
		c-0.9-1.7-0.9-2.9,0.7-4.4c2.4-2.2,3.7-4.9,2.8-8.3c-1.1-4-4.1-6.9-8-7.4c-0.2,0-0.4,0-0.6,0s-0.4,0-0.6,0c-3.9,0.5-7,3.3-8,7.4
		c-0.9,3.4,0.4,6.1,2.8,8.3c1.6,1.4,1.6,2.6,0.7,4.4c-2.4,4.7-4.8,9.4-7.1,14.2c-1,2.1-2.1,2.5-4.3,1.6c-6.6-2.8-13.2-5.2-19.7-8.1
		c-0.9-0.4-1.8-1.7-2.1-2.8c0-0.2,0.1-0.5,0.1-0.7c0-1.8-0.9-3.4-2.3-4.5c-0.2-0.1-0.4-0.3-0.6-0.4c-0.9-0.5-1.8-0.9-2.9-0.9
		c-2.9,0-5.5,2.6-5.5,5.8c0,2.4,1.5,4.4,3.6,5.3C5.3,45.3,5.7,46.1,6,47c3.4,8.6,6.9,17.2,10.1,25.9c1.1,3,2.8,4.2,6.1,4.1
		c9.5-0.2,19.1,0,28.6,0s19.1-0.1,28.6,0c3.2,0,5-1.1,6.1-4.1c3.3-8.7,6.7-17.3,10.1-25.9c0.3-0.8,0.7-1.7,1.2-2.4
		c2.1-0.9,3.6-2.9,3.6-5.3C100.5,36,97.9,33.5,94.7,33.5z"/>
</g>
</svg>
