<?xml version="1.0" encoding="utf-8"?>
<!-- Generator: Adobe Illustrator 24.1.2, SVG Export Plug-In . SVG Version: 6.00 Build 0)  -->
<svg version="1.1" id="Layer_1" xmlns="http://www.w3.org/2000/svg" xmlns:xlink="http://www.w3.org/1999/xlink" x="0px" y="0px"
	 viewBox="0 0 101.6 110.6" style="enable-background:new 0 0 101.6 110.6;" xml:space="preserve">
<style type="text/css">
	.st0{fill:#2400A2;}
	.st1{fill:#CBCECF;}
</style>
<rect x="129.5" y="1.8" class="st0" width="101.6" height="110.6"/>
<g>
	<circle class="st1" cx="69.7" cy="17.3" r="4.9"/>
	<circle class="st1" cx="95.5" cy="23.6" r="4.9"/>
	<path class="st1" d="M51.5,98.1c-7.4,0-14.8-0.1-22.2,0.1c-3.7,0.1-4.6-1.7-4.5-4.9c0.1-3.1,0.2-5.6,4.3-5.6
		c14.8,0.1,29.5,0.1,44.3,0c4.4,0,4.4,2.6,4.4,5.8c0.1,3.4-1.1,4.8-4.6,4.7C66,98,58.7,98.1,51.5,98.1z"/>
	<circle class="st1" cx="31.9" cy="17.3" r="4.9"/>
	<circle class="st1" cx="6.1" cy="23.6" r="4.9"/>
	<path class="st1" d="M92.4,31.5c-1.8-0.9-3.3,0.9-4.2,2.1c-4.8,6.9-9.4,14-14,20.9c-0.7,1.1-1.5,2.1-3,4c-0.1-2.4-0.3-3.6-0.3-4.8
		c0-7.5,0.1-15-0.2-22.5c-0.1-2.1,0.5-5.4-1.6-6c-2.1-0.5-3.5,2.6-4.4,4.4c-3.9,7.3-12.9,24.6-13.9,26.2c-1-1.7-10-18.9-13.9-26.2
		c-1-1.8-2.3-4.9-4.4-4.4c-2.1,0.6-1.6,3.9-1.6,6c-0.2,7.5-0.1,15-0.2,22.5c0,1.2-0.1,2.4-0.3,4.8c-1.4-1.9-2.3-2.9-3-4
		c-4.7-7-9.3-14-14.1-20.9c-1-1.2-2.5-3-4.2-2.1c-1.5,1-0.9,3-0.4,4.4c5.1,13.9,10.4,27.7,15.5,41.5c1,2.8,2.7,3.9,5.7,3.9h42
		c3,0,4.7-1.1,5.7-3.9c5-13.8,10.2-27.6,15.3-41.5C93.3,34.5,93.9,32.5,92.4,31.5z"/>
</g>
</svg>
