<?xml version="1.0" encoding="utf-8"?>
<!-- Generator: Adobe Illustrator 24.1.2, SVG Export Plug-In . SVG Version: 6.00 Build 0)  -->
<svg version="1.1" id="Layer_1" xmlns="http://www.w3.org/2000/svg" xmlns:xlink="http://www.w3.org/1999/xlink" x="0px" y="0px"
	 viewBox="0 0 101.6 110.6" style="enable-background:new 0 0 101.6 110.6;" xml:space="preserve">
<style type="text/css">
	.st0{fill:#2400A2;}
	.st1{fill:#50B818;}
</style>
<rect x="115.9" y="0.1" class="st0" width="101.6" height="110.6"/>
<g>
	<path class="st1" d="M51.2,88.7c-11.2,0-22.4,0-33.6,0c-4.5,0-5-0.6-5-5.7c0-5.9,0.4-6.6,4.9-6.6c22.5,0,45.1,0,67.6-0.1
		c3.7,0,5.3,1.3,4.9,5c-0.1,0.6,0,1.3,0,1.9c0,5-0.3,5.3-5.2,5.3C73.6,88.7,62.4,88.7,51.2,88.7z"/>
	<path class="st1" d="M100.7,37.5c0-0.1,0-0.1,0-0.2c-0.2-3.2-2.8-5.7-6-5.7c-3.3,0-6,2.7-6,6c0,1.8,0.8,3.3,2,4.4
		c0.1,0.2,0.2,0.4,0.4,0.6c-2.3,2.1-4.7,4.2-7.1,6.4c-5.5,5.2-12,4.8-16.7-1.2c-3.6-4.6-7-9.2-10.4-14c-0.5-0.7-0.7-1.7-0.7-2.7
		c0.5-0.9,0.8-1.9,0.8-3s-0.3-2-0.8-2.9c-0.1-0.1-0.1-0.3-0.2-0.4v-0.1c-0.2-0.3-0.4-0.6-0.7-0.8l-0.1-0.1c-0.1-0.1-0.2-0.2-0.3-0.2
		c-1-0.9-2.4-1.5-3.9-1.5s-2.8,0.6-3.9,1.5c-0.1,0-0.2,0.1-0.3,0.2l-0.1,0.1c-0.3,0.3-0.5,0.5-0.7,0.8v0.1c-0.1,0.1-0.2,0.3-0.2,0.4
		C45.3,26.1,45,27,45,28.1c0,1.1,0.3,2.1,0.8,3c0,1-0.2,2-0.7,2.7c-3.3,4.8-6.8,9.4-10.4,14C30,53.8,23.6,54.2,18,49
		c-2.3-2.2-4.8-4.3-7.1-6.4c0.1-0.3,0.2-0.5,0.4-0.6c1.2-1.1,2-2.7,2-4.4c0-3.3-2.7-6-6-6c-3.2,0-5.8,2.5-6,5.7c0,0.1,0,0.1,0,0.2
		v0.1c0,0.1,0,0.2,0,0.3c0,0.2,0,0.4,0.1,0.6c0.3,1.9,1.5,3.6,3.2,4.4c1.3,2,1.7,4.4,2.3,6.7c1.6,5.5,3,11,4.2,16.5
		c0.7,2.9,2.1,4.2,5.3,4.2c11.6,0,23.1,0.1,34.7,0.1c11.6-0.1,23.1-0.2,34.7-0.1c3.2,0,4.6-1.3,5.3-4.2c1.3-5.5,2.7-11,4.1-16.5
		c0.6-2.3,1-4.6,2.3-6.7c1.7-0.9,2.9-2.5,3.2-4.4c0-0.2,0.1-0.4,0.1-0.6C100.8,37.8,100.8,37.7,100.7,37.5
		C100.7,37.6,100.7,37.5,100.7,37.5z"/>
</g>
</svg>
