<?xml version="1.0" encoding="utf-8"?>
<!-- Generator: Adobe Illustrator 24.1.2, SVG Export Plug-In . SVG Version: 6.00 Build 0)  -->
<svg version="1.1" id="Layer_1" xmlns="http://www.w3.org/2000/svg" xmlns:xlink="http://www.w3.org/1999/xlink" x="0px" y="0px"
	 viewBox="0 0 99.2 110.6" style="enable-background:new 0 0 99.2 110.6;" xml:space="preserve">
<style type="text/css">
	.st0{fill:#F3B931;}
</style>
<g>
	<path class="st0" d="M49.5,97.2c11,0,21.9,0,32.9,0c5.3,0,6,1.1,6,6.7s-1.1,6.7-6,6.7c-21.9,0-44.2,0-66.2,0c-5,0-5.7-0.7-5.7-7.4
		c0-5.3,0.7-6,5.7-6C27.2,97.2,38.1,97.2,49.5,97.2z"/>
	<path class="st0" d="M97.6,48.9c-4.2-12-17.7-19.4-28.7-15.8c0,0.4,0,0.7,0,0.7c0.4,1.1,0.7,1.8,1.1,2.8
		c3.2,10.6,3.5,21.1,0.4,31.7c-1.8,5.6-2.5,6-8.8,4.2c0.4-1.1,0.7-2.5,1.1-3.5c3.5-12.7,3.9-25.3-3.2-37.3c-2.8-4.9-6.4-7-9.9-7
		s-7.1,2.5-9.9,7c-7.1,12-6.7,24.6-2.8,37.7c0.4,1.1,0.7,2.5,1.1,3.5c-6.4,1.8-7.1,1.4-8.8-4.2C26,58.1,26.4,47.6,29.6,37
		c0.4-1.1,0.7-1.8,1.1-2.8c0-0.4,0-0.4,0-0.7C19.7,30,6.3,37.4,2,49.3c-3.5,10.2-1.4,19,5.7,27.1c1.4,1.4,2.1,3.9,2.5,5.6
		c0,4.6,2.1,6.7,7.1,6.7c11,0,21.6,0,32.6,0s21.6,0,32.6,0c5,0,6.7-2.1,7.4-6.7c0.4-2.1,1.1-4.2,2.5-5.6
		C98.7,68.3,101.1,59.1,97.6,48.9z"/>
	<polygon class="st0" points="49.5,0 51.9,8.1 60.4,8.1 53.7,13 56.2,20.8 49.5,15.8 42.4,20.8 45.2,13 38.1,8.1 46.6,8.1 	"/>
</g>
</svg>
