<svg width="71" height="23" viewBox="0 0 71 23" fill="none" xmlns="http://www.w3.org/2000/svg">
<path d="M0.71875 0.375H7.3125L13.1562 14.625H13.4062L19.25 0.375H25.8438V23H20.6562V8.9375H20.4688L14.9688 22.875H11.5938L6.09375 8.875H5.90625V23H0.71875V0.375ZM34.1875 0.375L39.3438 17.0625H39.5312L44.6875 0.375H50.625L42.9688 23H35.9062L28.2188 0.375H34.1875ZM53.0312 23V0.375H62.2812C67.375 0.375 70.5 3.5625 70.5 8.15625C70.5 12.8438 67.3125 15.9062 62.125 15.9062H58.3438V23H53.0312ZM58.3438 11.6875H61.1562C63.6562 11.6875 65 10.2812 65 8.15625C65 6.03125 63.6562 4.6875 61.1562 4.6875H58.3438V11.6875Z" fill="url(#paint0_linear_309_4)"/>
<defs>
<linearGradient id="paint0_linear_309_4" x1="-10.0413" y1="3.66667" x2="86.7155" y2="17.7927" gradientUnits="userSpaceOnUse">
<stop stop-color="#FBC73B"/>
<stop offset="1" stop-color="#C96B00"/>
</linearGradient>
</defs>
</svg>
