<svg width="529" height="513" viewBox="0 0 529 513" fill="none" xmlns="http://www.w3.org/2000/svg">
<path d="M292.901 18C287.601 7 276.401 0 264.101 0C251.801 0 240.701 7 235.301 18L171.001 150.3L27.401 171.5C15.401 173.3 5.40098 181.7 1.70098 193.2C-1.99902 204.7 1.00097 217.4 9.60097 225.9L113.801 329L89.201 474.7C87.201 486.7 92.201 498.9 102.101 506C112.001 513.1 125.101 514 135.901 508.3L264.201 439.8L392.501 508.3C403.301 514 416.401 513.2 426.301 506C436.201 498.8 441.201 486.7 439.201 474.7L414.501 329L518.701 225.9C527.301 217.4 530.401 204.7 526.601 193.2C522.801 181.7 512.901 173.3 500.901 171.5L357.201 150.3L292.901 18Z" fill="#C2C2C2"/>
</svg>
