<?xml version="1.0" encoding="utf-8"?>
<!-- Generator: Adobe Illustrator 24.1.2, SVG Export Plug-In . SVG Version: 6.00 Build 0)  -->
<svg version="1.1" id="Layer_1" xmlns="http://www.w3.org/2000/svg" xmlns:xlink="http://www.w3.org/1999/xlink" x="0px" y="0px"
	 viewBox="0 0 99.2 110.6" style="enable-background:new 0 0 99.2 110.6;" xml:space="preserve">
<style type="text/css">
	.st0{fill:#CBCECF;}
</style>
<g>
	<circle class="st0" cx="68.5" cy="29.7" r="4.9"/>
	<circle class="st0" cx="94.3" cy="36" r="4.9"/>
	<path class="st0" d="M50.3,110.5c-7.4,0-14.8-0.1-22.2,0.1c-3.7,0.1-4.6-1.7-4.5-4.9c0.1-3.1,0.2-5.6,4.3-5.6
		c14.8,0.1,29.5,0.1,44.3,0c4.4,0,4.4,2.6,4.4,5.8c0.1,3.4-1.1,4.8-4.6,4.7C64.8,110.4,57.5,110.5,50.3,110.5z"/>
	<circle class="st0" cx="30.7" cy="29.7" r="4.9"/>
	<circle class="st0" cx="4.9" cy="36" r="4.9"/>
	<path class="st0" d="M91.2,43.9C89.4,43,87.9,44.8,87,46C82.2,52.9,77.6,60,73,66.9c-0.7,1.1-1.5,2.1-3,4c-0.1-2.4-0.3-3.6-0.3-4.8
		c0-7.5,0.1-15-0.2-22.5c-0.1-2.1,0.5-5.4-1.6-6c-2.1-0.5-3.5,2.6-4.4,4.4c-3.9,7.3-12.9,24.6-13.9,26.2c-1-1.7-10-18.9-13.9-26.2
		c-1-1.8-2.3-4.9-4.4-4.4c-2.1,0.6-1.6,3.9-1.6,6c-0.2,7.5-0.1,15-0.2,22.5c0,1.2-0.1,2.4-0.3,4.8c-1.4-1.9-2.3-2.9-3-4
		c-4.7-7-9.3-14-14.1-20.9c-1-1.2-2.5-3-4.2-2.1c-1.5,1-0.9,3-0.4,4.4C12.6,62.2,17.9,76,23,89.8c1,2.8,2.7,3.9,5.7,3.9h42
		c3,0,4.7-1.1,5.7-3.9C81.4,76,86.6,62.2,91.7,48.3C92.1,46.9,92.7,44.9,91.2,43.9z"/>
</g>
</svg>
